<svg xmlns="http://www.w3.org/2000/svg" viewBox="0 0 595.32 285.71"><defs><style>.cls-1{fill:#1e2730;}.cls-2{fill:#e8553e;}.cls-3{fill:#f5b945;}.cls-4{fill:#35ba9b;}.cls-5{fill:#fbd277;}.cls-6{fill:#fb836f;}</style></defs><title>medlegten_logo@2x-8</title><g id="Layer_2" data-name="Layer 2"><g id="Layer_1-2" data-name="Layer 1"><path class="cls-1" d="M595.32,201.76c0,1.15,0,2.3,0,3.45s-.09,2-.16,3c0,.65-.1,1.3-.17,1.94,0,.17,0,.33,0,.5l-.15,1.43,0,.24a0,0,0,0,0,0,0h0c-.23,1.88-.52,3.76-.88,5.62-.24,1.2-.49,2.4-.78,3.59-.16.69-.33,1.37-.51,2.05-.14.52-.28,1-.43,1.55-.24.86-.49,1.71-.77,2.57q-.51,1.57-1.08,3.12c-.3.85-.63,1.69-1,2.52l-.08.2,0,.05c-.25.61-.52,1.23-.78,1.84l-.45,1c-.12.28-.25.55-.38.83s-.31.67-.47,1-.31.66-.48,1c-.23.48-.48,1-.73,1.44l-.17.33c-.25.49-.51,1-.78,1.45l-.18.33-.29.53c-.17.29-.33.58-.51.87l-.19.33c-.27.47-.55.93-.83,1.39l-.38.61c-.32.51-.64,1-1,1.52-.64,1-1.29,1.93-2,2.88-.39.56-.8,1.11-1.22,1.65l-.23.3c-.29.38-.59.77-.9,1.15l-.26.34c-.3.38-.6.75-.91,1.12a1.24,1.24,0,0,1-.15.19l-.58.7a.34.34,0,0,1-.06.06c-.45.53-.91,1.06-1.37,1.58l0,0c-.15.16-.29.32-.45.48-.81.9-1.64,1.77-2.5,2.64l-.51.5-.28.28L569,263.17l-.78.73-.34.31q-.8.72-1.59,1.41c-1,.92-2.11,1.8-3.2,2.63l-.06,0c-.55.43-1.11.86-1.67,1.27l-.37.28-.79.56-.09.06c-.54.39-1.09.77-1.64,1.14l-.1.07,0,0-.93.62-.17.1-.32.21c-.16.11-.32.22-.49.32l-.21.13c-.58.37-1.17.73-1.76,1.08-.94.57-1.9,1.12-2.87,1.63l-.35.18-.34.18s0,0,0,0c-.6.32-1.21.63-1.82.93l-1.12.55-.21.1,0,0a3.11,3.11,0,0,1-.45.22l-.17.07c-.48.23-1,.45-1.47.67a1,1,0,0,1-.21.09c-.39.17-.78.34-1.17.49l-.09,0-.35.14-1.08.44c-.88.35-1.77.7-2.67,1l-.29.11-.19.07a78.45,78.45,0,0,1-11.44,3.08c-.24,0-.49.1-.74.13-.41.09-.82.16-1.23.23-.65.12-1.31.23-2,.31s-1.32.19-2,.26l-2,.22h-.11l-.74.06-.41,0-.25,0h-.31l-.39,0-.61,0h-.23l-1.19.07-1.49.06H511l-1,0-1.71-.06c-1.32-.06-2.64-.15-4-.28h0c-1.31-.12-2.62-.28-3.92-.47-.9-.13-1.79-.27-2.69-.43h0A80.5,80.5,0,0,1,481,279.6c-.54-.21-1.08-.44-1.61-.67-1.24-.52-2.46-1.09-3.66-1.69s-2.41-1.21-3.59-1.88l-1.77-1-1.75-1.06c-.57-.35-1.13-.71-1.69-1.07l-.07,0L465.14,271c-.56-.39-1.12-.78-1.67-1.18a.1.1,0,0,1,0,0c-.41-.31-.83-.61-1.24-.93-.23-.16-.45-.33-.67-.51l-1.14-.91a2.42,2.42,0,0,1-.31-.25c-.42-.33-.83-.68-1.24-1l-.35-.3c-.43-.37-.86-.74-1.29-1.13l-.45-.4-.85-.79c-.4-.36-.79-.74-1.18-1.12l-.82-.79-.41-.42-50-50.24-.07.07-4.85,4.87h.06L374.09,240.6l-.5.5a103.49,103.49,0,0,1-15.28,12.53c-.7.47-1.41.93-2.12,1.39L354,256.36l-2.09,1.23-.19.1c-.57.33-1.15.65-1.73,1-1,.53-1.94,1-2.93,1.54l-1.83.89-.33.16c-.49.24-1,.47-1.49.69l-1.25.56-.83.36c-.55.24-1.1.47-1.66.69l-.64.26-1.57.61c-.25.1-.5.2-.75.28-.66.25-1.32.49-2,.72-1.57.56-3.16,1.07-4.75,1.53s-3.19.91-4.81,1.29q-4.5,1.11-9.11,1.79h0c-1,.16-2,.29-3.06.41-1.64.21-3.28.36-4.93.47s-3.29.2-4.94.23c-.84,0-1.68,0-2.53,0l-2.43,0a102.86,102.86,0,0,1-71-30.53l-32.31-32.47-.07-.07-52.94,53.22c-.34.34-.69.65-1,1s-.9.88-1.36,1.3l-1.22,1.11a4,4,0,0,1-.39.34c-.21.2-.43.39-.64.57l-.9.76c-.17.16-.34.3-.52.45l-.19.15c-.46.39-.93.76-1.39,1.13s-1.08.84-1.62,1.24-1.1.81-1.65,1.2l-1.67,1.16c-.56.38-1.13.75-1.7,1.11s-1.14.72-1.72,1.07-1,.6-1.5.88l-.35.2-1.63.91,0,0c-.55.29-1.1.58-1.66.86l-.21.11-1.42.7-.49.23c-.49.24-1,.46-1.47.68l-.25.12c-.6.26-1.19.52-1.8.77l-1.57.64-.55.21c-.41.16-.82.32-1.23.46l-.61.22q-.63.24-1.29.45c-.49.18-1,.34-1.49.49s-.93.3-1.4.43a2.08,2.08,0,0,1-.33.1q-.78.24-1.56.45l-.53.14-1.33.34c-.54.14-1.08.27-1.63.39l-1.42.31-1,.2-.23,0-1.73.31c-.53.09-1,.18-1.57.25s-1.18.18-1.77.25l-.34,0c-.64.08-1.29.16-1.93.22-1.36.14-2.72.24-4.09.31-.55,0-1.09,0-1.64.06s-1.1,0-1.65,0h-1l-1.26,0c-1,0-1.91,0-2.86-.09-1.5-.08-3-.2-4.48-.35l-.89-.1-1-.13-1-.13c-.52-.07-1-.14-1.56-.23-.73-.11-1.46-.24-2.18-.37a82.23,82.23,0,0,1-43.15-22.6l-.42-.41c-1.19-1.19-2.31-2.43-3.4-3.68-.08-.08-.15-.17-.22-.25q-.81-.91-1.59-1.86c-.56-.68-1.12-1.37-1.65-2.07s-1-1.31-1.49-2-.76-1-1.12-1.58c-.22-.32-.44-.63-.65-1-.39-.56-.76-1.13-1.13-1.7-.74-1.13-1.43-2.28-2.08-3.44-.29-.5-.58-1-.86-1.53s-.48-.89-.71-1.34-.52-1-.76-1.48c-.06-.11-.11-.22-.16-.33-.28-.57-.55-1.14-.82-1.72s-.56-1.24-.83-1.86-.53-1.25-.79-1.88c-.45-1.1-.87-2.2-1.26-3.32s-.76-2.19-1.1-3.31c0,0,0,0,0,0q-.78-2.5-1.4-5.09c-.13-.58-.27-1.16-.39-1.74s-.27-1.31-.4-2-.23-1.26-.34-1.89a.65.65,0,0,1,0-.2c-.1-.62-.19-1.25-.28-1.87S.69,213,.62,212.46q-.06-.39-.09-.78c-.05-.44-.09-.88-.14-1.31,0-.17,0-.35,0-.52,0-.44-.08-.89-.12-1.33s-.06-.92-.08-1.38c0-.3,0-.61-.05-.91-.07-1.33-.1-2.67-.1-4,0-1.15,0-2.31.08-3.46,0-.18,0-.36,0-.54,0-.59.06-1.17.1-1.75,0-.12,0-.24,0-.35.05-.63.1-1.27.16-1.9.09-.9.19-1.8.3-2.69.09-.68.19-1.36.29-2,0-.17.05-.34.08-.51.12-.77.25-1.54.4-2.31s.32-1.66.51-2.5.37-1.65.58-2.48S3,180,3.2,179.23c.53-1.92,1.15-3.82,1.84-5.7.21-.59.43-1.18.67-1.76l.37-.94c.07-.2.15-.39.23-.58.19-.49.4-1,.61-1.46.14-.34.29-.67.44-1s.4-.9.61-1.34l.52-1.08s0,0,0,0h0c.17-.35.34-.69.52-1l0-.06a83.73,83.73,0,0,1,15.38-21.4L141.89,24.57l0-.05v0l.07.07,0,0,0-.08A82.68,82.68,0,0,1,258.82,24l.52.53,38.35,38.62L336,24.55A82.68,82.68,0,0,1,452.94,24l.52.52.06.07L571,142.87a83.67,83.67,0,0,1,24.22,55.71c0,.09,0,.18,0,.27C595.29,199.82,595.32,200.79,595.32,201.76Z"/><path class="cls-2" d="M174,187.34l-52.78,53.14c-.14.13-.27.27-.41.41a53.68,53.68,0,0,1-75.92-.41,54.59,54.59,0,0,1-15.77-35.91c0-.42,0-.85,0-1.27q0-1.32,0-2.64l0-1.1a54.28,54.28,0,0,1,15.76-35.71L59.6,149.09a53.87,53.87,0,0,1,76.37,0Z"/><path class="cls-3" d="M566.2,202.22c0,.87,0,1.74-.06,2.6,0,.44,0,.87-.08,1.3l-.25,2.59c0,.36-.09.73-.14,1.09s-.1.7-.16,1a54.6,54.6,0,0,1-15.13,29.68l-.34.33a53.7,53.7,0,0,1-75.95-.33l-.06.07,0,0,.07-.07-52.78-53.15,38.07-38.25.21-.21a53.86,53.86,0,0,1,76.16.21l14.69,14.76A54.35,54.35,0,0,1,566.2,202.22Z"/><path class="cls-4" d="M382.84,190.41l-29.37,29.53-.34.35a74.54,74.54,0,0,1-105.41-.35L215.4,187.47l82.26-82.66Z"/><path class="cls-5" d="M491.48,104.17a82.45,82.45,0,0,0-52.69,24.22l-38.07,38.25-82.42-83,38.26-38.53.34-.34a53.71,53.71,0,0,1,75.95.34Z"/><path class="cls-6" d="M277,83.64l-82.43,83-38-38.23c-.09-.09-.18-.17-.26-.26q-2.28-2.27-4.68-4.32c-.87-.74-1.74-1.46-2.63-2.16l-1.26-1q-1.26-.95-2.55-1.86h0c-.78-.54-1.57-1.07-2.36-1.59s-1.5-1-2.25-1.41l-2.28-1.33h0c-.67-.38-1.35-.74-2-1.1l-.91-.46h0l-.25-.11-.15-.08-.21-.1c-.69-.35-1.39-.68-2.1-1a82.15,82.15,0,0,0-28.82-7.47l23.5-23.67,35.16-35.41h0c.12-.11.23-.22.34-.34a53.71,53.71,0,0,1,76,.34Z"/></g></g></svg>